<svg width="10" height="10" viewBox="0 0 10 10" fill="none" xmlns="http://www.w3.org/2000/svg">
<path opacity="0.41" d="M6.18649 5L9.75904 1.42745C10.0838 1.10267 10.0838 0.568361 9.75904 0.243583C9.43426 -0.0811944 8.89995 -0.0811944 8.57517 0.243583L5.00262 3.81613L1.43007 0.243584C1.10529 -0.0811934 0.570981 -0.0811934 0.246203 0.243584C0.0838146 0.405973 9.53674e-07 0.620745 9.53674e-07 0.835516C9.53674e-07 1.05029 0.0838146 1.26506 0.246203 1.42745L3.81875 5L0.246202 8.57255C0.0838137 8.73494 0 8.94971 0 9.16448C0 9.37926 0.0838137 9.59403 0.246202 9.75642C0.57098 10.0812 1.10529 10.0812 1.43007 9.75642L5.00262 6.18387L8.57517 9.75642C8.89995 10.0812 9.43426 10.0812 9.75904 9.75642C10.0838 9.43164 10.0838 8.89733 9.75904 8.57255L6.18649 5Z" fill="#0042E0"/>
</svg>
